<svg fill="none" xmlns="http://www.w3.org/2000/svg" viewBox="0 0.18 120 39.64">     <path d="M84.0449 17.6895H73.5252L73.0367 19.9061H77.0192L74.6147 31.1772H77.2071L79.6116 19.9061H83.5565L84.0449 17.6895Z" fill="#657A99"></path>     <path d="M53.3875 17.6895L46.0613 31.1772H48.7288L50.1189 28.6225H55.9423L56.2804 31.1772H58.9104L57.1821 17.6895H53.3875ZM51.1333 26.6688L54.9279 19.6807H54.9655L55.792 26.6688H51.1333Z" fill="#657A99"></path>     <path d="M71.2335 17.9148C70.8203 17.7645 70.3694 17.6518 69.8434 17.6142C69.3174 17.5767 68.6036 17.5767 67.7019 17.5767C66.6499 17.5767 65.7858 17.6518 65.0344 17.8021C64.3206 17.9524 63.6819 18.2154 63.1559 18.6286C62.6299 19.0043 62.1791 19.5303 61.8034 20.2442C61.4276 20.958 61.1271 21.8221 60.9017 22.8741L60.263 25.9549C60.0751 26.9693 59.9624 27.7583 59.9624 28.3594C59.9624 29.4114 60.263 30.1628 60.8641 30.6136C61.4652 31.0644 62.5548 31.2899 64.0576 31.2899C64.1327 31.2899 64.2454 31.2899 64.3957 31.2899H64.7714C64.9217 31.2899 65.1096 31.2899 65.2974 31.2899C66.2742 31.2523 67.0632 31.2147 67.6268 31.102C68.1903 31.0269 68.7163 30.8766 69.2047 30.6136C69.6931 30.3506 70.1064 29.9749 70.4446 29.4489C70.7827 28.9229 71.0457 28.1715 71.2335 27.2323L71.4214 26.3681H68.829L68.6787 27.1196C68.566 27.608 68.4157 27.9837 68.2655 28.2467C68.0776 28.5097 67.8898 28.6975 67.6268 28.8478C67.3638 28.9605 67.0632 29.0356 66.7251 29.0732C66.3869 29.1108 65.8985 29.1108 65.2598 29.1108C64.2454 29.1108 63.5692 28.9981 63.1935 28.8102C62.8178 28.6224 62.6299 28.2091 62.6299 27.6455C62.6299 27.2698 62.705 26.6687 62.8929 25.8797L63.5316 22.8741C63.6819 22.1603 63.8322 21.6343 64.02 21.2586C64.1703 20.8829 64.3957 20.5823 64.6587 20.3569C64.9217 20.1315 65.2223 20.0187 65.6355 19.9436C66.0488 19.8685 66.5748 19.8309 67.2886 19.8309C68.303 19.8309 69.0169 19.906 69.355 20.0187C69.6931 20.1315 69.881 20.3944 69.881 20.8453C69.881 21.0331 69.8434 21.2586 69.8059 21.5216L69.6556 22.273H72.2479L72.3982 21.5216C72.4734 21.0331 72.5109 20.5823 72.5109 20.2066C72.5109 19.5679 72.3982 19.0795 72.1728 18.7413C71.9474 18.3281 71.6092 18.0651 71.2335 17.9148Z" fill="#657A99"></path>     <path d="M87.013 17.6895L79.6868 31.1772H82.3543L83.7444 28.6225H89.5678L89.9059 31.1772H92.5359L90.8076 17.6895H87.013ZM84.7588 26.6688L88.5534 19.6807H88.591L89.4175 26.6688H84.7588Z" fill="#657A99"></path>     <path d="M119.662 18.6286C119.436 18.2905 119.136 18.065 118.76 17.9148C118.385 17.7645 117.934 17.6518 117.483 17.6142C116.994 17.5766 116.393 17.5391 115.642 17.5391C114.627 17.5391 113.838 17.5766 113.2 17.6142C112.561 17.6893 111.998 17.8396 111.472 18.065C110.946 18.2905 110.495 18.7037 110.119 19.1922C109.743 19.6806 109.443 20.432 109.255 21.3337C109.142 21.8597 109.067 22.3481 109.067 22.7614C109.067 23.3249 109.18 23.7758 109.368 24.0763C109.555 24.4145 109.856 24.6399 110.194 24.8277C110.532 24.978 110.946 25.0907 111.359 25.1659C111.772 25.241 112.373 25.2786 113.087 25.3161C113.313 25.3161 113.5 25.3537 113.575 25.3537C113.726 25.3537 113.989 25.3913 114.327 25.3913C115.078 25.4289 115.604 25.4664 115.905 25.6167C116.205 25.767 116.356 25.9924 116.356 26.4433C116.356 26.6311 116.318 26.8565 116.281 27.1571C116.205 27.5704 116.093 27.9085 115.98 28.1715C115.867 28.4345 115.717 28.6223 115.492 28.7726C115.266 28.9229 115.003 29.0356 114.627 29.0732C114.252 29.1108 113.801 29.1483 113.2 29.1483C112.11 29.1483 111.359 29.0732 110.983 28.9605C110.607 28.8478 110.42 28.5472 110.42 28.0964C110.42 27.9461 110.457 27.7207 110.495 27.4577L110.645 26.819H108.053L107.902 27.4577C107.79 27.9085 107.752 28.3594 107.752 28.7351C107.752 29.3362 107.865 29.8246 108.128 30.1627C108.391 30.5009 108.729 30.7639 109.142 30.9141C109.555 31.0644 110.081 31.1771 110.607 31.2147C111.133 31.2523 111.885 31.2898 112.749 31.2898C113.726 31.2898 114.552 31.2523 115.191 31.1771C115.83 31.102 116.393 30.9141 116.882 30.6511C117.37 30.3882 117.783 29.9749 118.122 29.4113C118.46 28.8478 118.723 28.0964 118.911 27.1947C119.061 26.5184 119.136 25.9924 119.136 25.5791C119.136 25.0907 119.061 24.715 118.873 24.452C118.685 24.189 118.422 23.9636 118.084 23.8133C117.708 23.663 117.295 23.5503 116.731 23.4752C116.205 23.4001 115.454 23.3625 114.477 23.2873C113.35 23.2122 112.636 23.1371 112.298 23.0243C111.96 22.9116 111.772 22.6486 111.772 22.2729C111.772 22.0851 111.81 21.7845 111.885 21.4088C111.96 21.0331 112.073 20.7326 112.185 20.5447C112.298 20.3193 112.486 20.169 112.711 20.0563C112.937 19.9436 113.237 19.8684 113.613 19.8309C113.989 19.7933 114.515 19.7557 115.229 19.7557C116.055 19.7557 116.656 19.7933 116.957 19.906C117.257 20.0187 117.408 20.2441 117.408 20.6574C117.408 20.8077 117.37 21.0331 117.333 21.2961L117.257 21.7094H119.85V21.221C119.962 20.7701 120 20.3568 120 19.9811C120 19.4176 119.887 18.9667 119.662 18.6286Z" fill="#657A99"></path>     <path d="M105.948 17.6895L103.093 31.1772H105.685L108.541 17.6895H105.948Z" fill="#657A99"></path>     <path d="M98.7351 17.6895H96.1427L93.2874 31.1772H102.192L102.642 28.9606H96.3681L98.7351 17.6895Z" fill="#657A99"></path>     <path d="M22.8804 31.0645H15.0657L18.9731 24.3019L22.8804 17.5392H32.9117L22.8804 0.181641L11.459 19.9813L0 39.8185H22.8804H45.7608L40.6888 31.0645H22.8804Z" fill="#22315E"></path>     <path d="M22.8804 17.5391L26.7878 24.3017L30.6951 31.0644H22.8804H15.0658L18.9731 24.3017L22.8804 17.5391Z" fill="#C7D3DD"></path>     <path d="M40.7264 31.0644L36.8191 24.3017L32.9117 17.5391H40.7264H48.5035L44.6337 24.3017L40.7264 31.0644Z" fill="#C7D3DD"></path> </svg>