<svg width="1065" height="841" viewBox="0 0 1065 841" fill="none" xmlns="http://www.w3.org/2000/svg">
<path d="M1011.78 275.055C1007.81 275.055 1004.6 273.833 1002.16 271.387C999.71 268.636 998.487 265.273 998.487 261.299C998.487 257.325 999.71 254.115 1002.16 251.669C1004.6 248.918 1007.81 247.542 1011.78 247.542C1015.76 247.542 1019.12 248.918 1021.87 251.669C1024.62 254.115 1026 257.325 1026 261.299C1026 265.273 1024.62 268.636 1021.87 271.387C1019.12 273.833 1015.76 275.055 1011.78 275.055ZM1001.24 528.634V299.359H1022.33V528.634H1001.24Z" fill="#24059D"/>
<path d="M931.664 528.634V475.901C920.047 494.854 906.291 508.764 890.394 517.629C874.804 526.494 856.92 530.927 836.744 530.927C820.847 530.927 805.868 528.023 791.806 522.215C778.049 516.406 765.821 508.152 755.122 497.453C744.422 487.059 736.015 474.831 729.901 460.769C724.093 446.401 721.189 431.421 721.189 415.831C721.189 400.24 724.093 385.413 729.901 371.351C736.015 356.983 744.422 344.449 755.122 333.75C765.821 323.05 778.049 314.796 791.806 308.988C805.868 303.18 820.847 300.276 836.744 300.276C858.754 300.276 877.708 304.555 893.604 313.115C909.806 321.675 922.493 334.361 931.664 351.175V305.778H952.757V528.634H931.664ZM836.744 320.91C823.904 320.91 811.524 323.356 799.601 328.247C787.985 333.138 777.896 339.864 769.337 348.424C760.777 356.983 754.052 367.224 749.161 379.146C744.269 390.763 741.824 402.991 741.824 415.831C741.824 428.67 744.269 440.898 749.161 452.515C754.052 464.131 760.777 474.219 769.337 482.779C777.896 491.339 787.985 498.064 799.601 502.955C811.524 507.847 823.904 510.292 836.744 510.292C849.278 510.292 861.353 507.847 872.969 502.955C884.586 498.064 894.674 491.339 903.234 482.779C911.794 474.219 918.519 464.131 923.41 452.515C928.607 440.898 931.206 428.67 931.206 415.831C931.206 402.991 928.76 390.763 923.869 379.146C918.977 367.224 912.252 356.983 903.692 348.424C895.133 339.864 885.045 333.138 873.428 328.247C861.811 323.356 849.583 320.91 836.744 320.91Z" fill="#24059D"/>
<path d="M707.029 529.093C703.361 529.093 700.151 527.717 697.399 524.966C694.954 522.215 693.731 519.005 693.731 515.336C693.731 511.362 694.954 508.152 697.399 505.707C700.151 502.956 703.361 501.58 707.029 501.58C711.003 501.58 714.366 502.956 717.117 505.707C719.868 508.152 721.244 511.362 721.244 515.336C721.244 519.005 719.868 522.215 717.117 524.966C714.366 527.717 711.003 529.093 707.029 529.093Z" fill="#24059D"/>
<path d="M620.946 626.306V497.911C611.775 508.611 600.311 517.171 586.555 523.59C573.104 529.704 559.5 532.761 545.743 532.761C530.153 532.761 515.173 529.704 500.805 523.59C486.743 517.476 474.515 509.07 464.121 498.37C453.422 487.365 445.015 474.831 438.901 460.769C433.093 446.707 430.188 431.727 430.188 415.831C430.188 399.934 433.093 384.955 438.901 370.893C445.015 356.525 453.422 343.838 464.121 332.833C474.515 321.828 486.743 313.421 500.805 307.613C515.173 301.499 530.153 298.442 545.743 298.442C560.111 298.442 573.868 301.957 587.013 308.988C600.158 315.714 611.469 324.885 620.946 336.501V304.861H661.757V626.306H620.946ZM545.743 340.17C535.655 340.17 526.026 342.157 516.855 346.131C507.684 349.799 499.735 355.149 493.01 362.18C486.285 369.211 480.935 377.465 476.961 386.942C473.292 396.113 471.458 405.743 471.458 415.831C471.458 425.919 473.292 435.548 476.961 444.719C480.935 453.89 486.285 461.992 493.01 469.023C499.735 476.054 507.684 481.556 516.855 485.531C526.026 489.505 535.655 491.492 545.743 491.492C555.832 491.492 565.461 489.505 574.632 485.531C583.803 481.556 591.751 476.054 598.477 469.023C605.202 461.992 610.552 453.89 614.526 444.719C618.5 435.548 620.487 425.919 620.487 415.831C620.487 405.743 618.5 396.113 614.526 386.942C610.552 377.465 605.202 369.211 598.477 362.18C591.751 355.149 583.803 349.799 574.632 346.131C565.461 342.157 555.832 340.17 545.743 340.17Z" fill="#24059D"/>
<path d="M396.42 343.38C389.083 340.017 382.511 338.335 376.702 338.335C364.474 338.335 354.386 342.615 346.438 351.175C337.878 360.346 333.599 370.893 333.599 382.815V528.634H294.163V382.815C294.163 366.307 298.29 351.175 306.544 337.418C315.104 323.662 326.72 312.962 341.394 305.32C352.399 300.123 364.169 297.524 376.702 297.524C386.79 297.524 396.42 299.359 405.591 303.027C414.762 306.695 424.392 312.657 434.48 320.911L396.42 343.38Z" fill="#24059D"/>
<path d="M136.014 530.927C120.423 530.927 105.596 527.87 91.534 521.756C77.4718 515.642 65.0909 507.235 54.3914 496.536C43.6918 485.836 35.285 473.455 29.171 459.393C23.057 445.331 20 430.504 20 414.914C20 399.017 23.057 383.885 29.171 369.517C35.285 355.149 43.6918 342.615 54.3914 331.916C65.0909 321.216 77.4718 312.962 91.534 307.154C105.596 301.04 120.423 297.983 136.014 297.983C151.91 297.983 167.042 301.04 181.41 307.154C195.778 312.962 208.312 321.216 219.011 331.916C229.711 342.615 237.965 355.149 243.773 369.517C249.887 383.885 252.944 399.017 252.944 414.914C252.944 430.504 249.887 445.331 243.773 459.393C237.965 473.455 229.711 485.836 219.011 496.536C208.312 507.235 195.778 515.642 181.41 521.756C167.042 527.87 151.91 530.927 136.014 530.927ZM136.014 338.794C115.532 338.794 97.9537 346.131 83.2801 360.805C76.249 367.836 70.7464 376.09 66.7722 385.566C62.7981 395.043 60.8111 404.825 60.8111 414.914C60.8111 425.002 62.7981 434.631 66.7722 443.802C70.7464 452.973 76.249 461.074 83.2801 468.106C90.3112 475.137 98.2594 480.639 107.125 484.613C116.296 488.587 125.925 490.575 136.014 490.575C146.102 490.575 155.884 488.587 165.361 484.613C174.838 480.639 182.939 475.137 189.664 468.106C196.389 461.074 201.739 452.973 205.713 443.802C209.687 434.631 211.674 425.002 211.674 414.914C211.674 404.825 209.687 395.043 205.713 385.566C201.739 376.09 196.389 367.836 189.664 360.805C182.939 353.773 174.838 348.424 165.361 344.755C156.19 340.781 146.407 338.794 136.014 338.794Z" fill="#24059D"/>
</svg>
