<?xml version="1.0" encoding="UTF-8"?><svg id="Ebene_1" xmlns="http://www.w3.org/2000/svg" xmlns:xlink="http://www.w3.org/1999/xlink" viewBox="0 0 558.51 168.17"><defs><style>.cls-1{fill:url(#linear-gradient);}.cls-1,.cls-2,.cls-3,.cls-4,.cls-5,.cls-6,.cls-7{stroke-width:0px;}.cls-8{clip-path:url(#clippath-2);}.cls-2{fill:url(#linear-gradient-5);}.cls-3{fill:none;}.cls-9{clip-path:url(#clippath-1);}.cls-10{clip-path:url(#clippath-4);}.cls-4{fill:url(#linear-gradient-2);}.cls-5{fill:url(#linear-gradient-3);}.cls-11{clip-path:url(#clippath);}.cls-6{fill:#383f46;}.cls-12{clip-path:url(#clippath-3);}.cls-7{fill:url(#linear-gradient-4);}</style><clipPath id="clippath"><path class="cls-3" d="M40.84,51.84c-1.77,1.77-1.77,4.63,0,6.4l12.46,12.46,14.72,14.72,16.06,16.06,12.38,12.38,4.32,4.32,9.15,9.15c.88.88,2.04,1.32,3.2,1.32s2.31-.44,3.2-1.32c1.77-1.77,1.77-4.63,0-6.4l-6.66-6.66-5.68-5.68-15.28-15.28-8.38-8.38-20.05-20.06-13.04-13.04c-.88-.88-2.04-1.33-3.2-1.33s-2.31.44-3.2,1.33"/></clipPath><linearGradient id="linear-gradient" x1="-326.26" y1="1897.35" x2="-325.19" y2="1897.35" gradientTransform="translate(-118569.02 167911.93) rotate(45) scale(106.76 -106.76)" gradientUnits="userSpaceOnUse"><stop offset="0" stop-color="#0097bf"/><stop offset="1" stop-color="#00b0e1"/></linearGradient><clipPath id="clippath-1"><path class="cls-3" d="M79.74,60.63c-1.77,1.77-1.77,4.63,0,6.4l2.95,2.95,4.62,4.62,4.67,4.67,7.72,7.72,1.48,1.48c.88.88,2.04,1.33,3.2,1.33s2.31-.44,3.2-1.33c1.77-1.77,1.77-4.63,0-6.4l-2.4-2.41-7.47-7.47-6.45-6.45-3.81-3.81-1.31-1.31c-.88-.88-2.04-1.32-3.2-1.32-1.16,0-2.31.44-3.2,1.32"/></clipPath><linearGradient id="linear-gradient-2" x1="-316" y1="1888.55" x2="-315" y2="1888.55" gradientTransform="translate(-74254.2 12494.47) rotate(90) scale(39.37 -39.37)" gradientUnits="userSpaceOnUse"><stop offset="0" stop-color="#008581"/><stop offset="1" stop-color="#009a96"/></linearGradient><clipPath id="clippath-2"><path class="cls-3" d="M49.59,90.78c-1.77,1.77-1.77,4.63,0,6.4l4.66,4.66,8.67,8.67,8.11,8.11c.88.88,2.04,1.33,3.2,1.33s2.31-.44,3.2-1.33c1.77-1.77,1.77-4.63,0-6.4l-9.12-9.12-8.8-8.8-3.52-3.52c-.88-.88-2.04-1.32-3.2-1.32s-2.31.44-3.2,1.32"/></clipPath><linearGradient id="linear-gradient-3" x1="-316.02" y1="1888.53" x2="-315.02" y2="1888.53" gradientTransform="translate(-74283.43 12525.35) rotate(90) scale(39.37 -39.37)" gradientUnits="userSpaceOnUse"><stop offset="0" stop-color="#b41326"/><stop offset="1" stop-color="#d0122d"/></linearGradient><clipPath id="clippath-3"><path class="cls-3" d="M101.18,51.92c-1.77,1.77-1.77,4.63,0,6.4l5,5,3.71,3.71c.49.49,1.07.83,1.68,1.05.49.18,1,.28,1.52.28,1.16,0,2.31-.44,3.2-1.32.23-.23.42-.47.59-.73.99-1.52.98-3.5-.05-5-.16-.23-.34-.46-.54-.66l-8.71-8.71c-.88-.88-2.04-1.33-3.2-1.33s-2.31.44-3.2,1.32"/></clipPath><linearGradient id="linear-gradient-4" x1="-302.44" y1="1876.8" x2="-301.44" y2="1876.8" gradientTransform="translate(-39987.16 6510.07) rotate(90) scale(21.36 -21.36)" gradientUnits="userSpaceOnUse"><stop offset="0" stop-color="#d08911"/><stop offset="1" stop-color="#f6a015"/></linearGradient><clipPath id="clippath-4"><path class="cls-3" d="M40.88,112.22c-1.66,1.66-1.74,4.28-.28,6.05.09.11.17.24.28.34l8.71,8.71c.88.88,2.04,1.32,3.2,1.32s2.32-.44,3.2-1.32c1.77-1.77,1.77-4.63,0-6.4l-2.83-2.83-5.88-5.88c-.88-.88-2.04-1.33-3.2-1.33s-2.31.44-3.2,1.33"/></clipPath><linearGradient id="linear-gradient-5" x1="-302.41" y1="1876.84" x2="-301.41" y2="1876.84" gradientTransform="translate(-40048.25 6569.78) rotate(90) scale(21.36 -21.36)" gradientUnits="userSpaceOnUse"><stop offset="0" stop-color="#9c2b76"/><stop offset="1" stop-color="#b6328a"/></linearGradient></defs><g class="cls-11"><polygon class="cls-1" points="78.58 0 157.17 89.58 78.58 168.17 0 89.58 78.58 0"/></g><g class="cls-9"><rect class="cls-4" x="71.79" y="52.68" width="43.74" height="43.74" transform="translate(-25.28 88.06) rotate(-45)"/></g><g class="cls-8"><rect class="cls-5" x="41.64" y="82.83" width="43.74" height="43.74" transform="translate(-55.43 75.58) rotate(-45)"/></g><g class="cls-12"><rect class="cls-7" x="95.84" y="46.67" width="25.6" height="25.6" transform="translate(-10.23 94.24) rotate(-45)"/></g><g class="cls-10"><rect class="cls-2" x="35.59" y="106.92" width="25.72" height="25.72" transform="translate(-70.51 69.34) rotate(-45)"/></g><polygon class="cls-6" points="151.4 89.49 138.3 71.75 143.55 71.75 154.03 85.97 164.63 71.75 169.57 71.75 156.48 89.3 170.08 107.75 164.89 107.75 153.86 92.81 142.72 107.75 137.79 107.75 151.4 89.49"/><path class="cls-6" d="M207.51,70.75h5v11.39c2.87-1.21,6.43-2.06,9.78-2.06,5.64,0,10.22,4,10.22,8.92v18.75h-4v-18.81c0-2.92-2.83-5.29-6.33-5.29-3.7,0-7.9,1.06-10.67,2.24v21.86h-4v-37Z"/><path class="cls-6" d="M252.45,80.23c8.14,0,14.74,6.29,14.74,14.03s-6.61,14.03-14.74,14.03-14.74-6.29-14.74-14.03,6.6-14.03,14.74-14.03M252.45,104.63c5.72,0,10.37-4.65,10.37-10.37s-4.65-10.37-10.37-10.37-10.37,4.65-10.37,10.37,4.65,10.37,10.37,10.37"/><path class="cls-6" d="M272.51,80.75h4.24l.14,1.74c2.96-1.2,6.63-2.04,10.09-2.04,6.11,0,10.53,3.7,10.53,8.8v18.5h-4v-18.81c0-2.92-2.67-5.29-5.96-5.29-3.48,0-7.43,1.06-10.04,2.24v21.86h-5v-27Z"/><path class="cls-6" d="M318.27,80.21c8.26,0,14.25,4.78,14.25,11.39v1.98l-1.39,1.17h-23.78c.26,5.75,5,9.86,11.46,9.86,3.55,0,8.23-1.12,12.71-3.53v3.88c-4.32,2.11-8.97,3.31-12.71,3.31-9.32,0-16.07-5.89-16.07-14.03s6.52-14.03,15.53-14.03M326.84,91.75c0-4.48-3.93-7.73-9.36-7.73-5.09,0-8.99,3.12-10.07,7.73h19.43Z"/><path class="cls-6" d="M413.51,80.75h4.24l.14,1.74c2.96-1.2,6.63-2.04,10.09-2.04,6.11,0,10.53,3.7,10.53,8.8v18.5h-5v-18.81c0-2.92-2.67-5.29-5.96-5.29-3.48,0-7.43,1.06-10.04,2.24v21.86h-4v-27Z"/><path class="cls-6" d="M444.51,80.75h4.24l.14,1.74c2.96-1.2,6.63-2.04,10.09-2.04,6.11,0,10.53,3.7,10.53,8.8v18.5h-4v-18.81c0-2.92-2.67-5.29-5.96-5.29-3.48,0-7.43,1.06-10.04,2.24v21.86h-5v-27Z"/><path class="cls-6" d="M489.27,80.21c8.26,0,14.25,4.78,14.25,11.39v1.98l-1.39,1.17h-23.78c.26,5.75,5,9.86,11.46,9.86,3.55,0,8.23-1.12,12.71-3.53v3.88c-4.32,2.11-8.97,3.31-12.71,3.31-9.32,0-16.07-5.89-16.07-14.03s6.52-14.03,15.53-14.03M499.11,91.75c0-4.48-3.93-7.73-9.35-7.73-5.09,0-9,3.12-10.07,7.73h19.43Z"/><path class="cls-6" d="M523.14,80.23c3.18,0,6.97.89,10.37,2.76v3.89c-3.51-2.22-7.29-3.15-10.32-3.15-6.52,0-11.24,4.42-11.24,10.52s4.77,10.52,11.29,10.52c3.04,0,6.76-.92,10.27-3.15v3.89c-3.4,1.88-7.19,2.76-10.37,2.76-9.05,0-15.56-5.89-15.56-14.03s6.5-14.03,15.56-14.03"/><path class="cls-6" d="M538.51,74.21l4-.56v7.1h15v3h-14v16.22c0,2.5,3.15,4.52,7.02,4.52,3,0,5.53-1.05,7.98-2.9v4.35c-2.64,1.58-5.21,2.44-8.26,2.44-6.48,0-11.74-3.63-11.74-8.1v-26.07Z"/><path class="cls-6" d="M393.36,79.78c-5.1,0-9.6,2.36-12.34,5.97h-.01s-.02.03-.05.08c-.6.8-1.12,1.67-1.53,2.58-.88,1.55-1.34,3.03-3,5.84-2.36,3.99-4.58,7.79-12.59,9.54-1.24.18-2.51.29-3.79.29-8.81,0-15.19-6.02-15.19-14.34s6.38-14.34,15.19-14.34c5.53,0,11.02,1.79,14.47,4.88v-4.54c-3.77-2.66-9.15-4.11-14.47-4.11-11.47,0-19.77,7.6-19.77,18.1s8.3,18.1,19.77,18.1c2.02,0,4.04-.17,5.98-.56.96-.17,2.17-.48,3.49-.98.17-.06.34-.14.51-.21.25-.1.49-.21.75-.32,1.14-.51,2.21-1.14,3.19-1.88.15-.1.29-.2.43-.31.04-.03.08-.05.11-.08h0c1.63-1.29,3.21-2.96,4.55-5.17.32-.53,2.24-3.79,4.45-8.39h0c.75-1.53,1.41-2.58,2.96-4.01,2.37-1.98,5.64-2.96,9.13-2.26,4.09.82,7.39,4.06,8.17,8.15,1.26,6.6-3.9,12.36-10.42,12.36-4.39,0-8.14-2.61-9.76-6.32-.91,1.62-1.76,2.98-2.51,4.1,2.74,3.56,7.21,5.88,12.27,5.88,8.33,0,15.09-6.29,15.09-14.03s-6.76-14.03-15.09-14.03"/><path class="cls-6" d="M199.74,76.51c-2.05-2.3-5.03-3.76-8.35-3.76h-16.87v35h4v-13h12.88c3.33,0,6.3-1.46,8.35-3.76,1.76-1.98,2.83-4.57,2.83-7.42s-1.08-5.45-2.83-7.42M191.51,90.75h-13v-15h12.45c3.51,0,6.7,2.34,7.47,5.76,1.11,4.89-2.6,9.24-7.3,9.24"/></svg>